<svg width="252" height="93" viewBox="0 0 252 93" fill="none" xmlns="http://www.w3.org/2000/svg">
<path d="M45.968 92L28.944 59.488H28.816V92H0.4V1.376H42.64C49.9787 1.376 56.2507 2.69866 61.456 5.34399C66.6613 7.904 70.544 11.4453 73.104 15.968C75.7493 20.4053 77.072 25.44 77.072 31.072C77.072 37.1307 75.3653 42.5067 71.952 47.2C68.624 51.8933 63.8027 55.264 57.488 57.312L77.2 92H45.968ZM28.816 40.544H40.08C42.8107 40.544 44.8587 39.9467 46.224 38.752C47.5893 37.472 48.272 35.5093 48.272 32.864C48.272 30.4747 47.5467 28.5973 46.096 27.232C44.7307 25.8667 42.7253 25.184 40.08 25.184H28.816V40.544ZM157.318 1.376V23.904H133.254V92H104.838V23.904H81.03V1.376H157.318ZM162.465 46.56C162.465 37.6 164.257 29.6213 167.841 22.624C171.51 15.6267 176.716 10.208 183.457 6.368C190.198 2.44266 198.134 0.479996 207.265 0.479996C215.116 0.479996 222.113 1.97333 228.257 4.96C234.486 7.86133 239.521 12 243.361 17.376C247.286 22.752 249.889 29.024 251.169 36.192H221.217C219.852 33.2053 217.889 30.9013 215.329 29.28C212.854 27.5733 209.996 26.72 206.753 26.72C201.974 26.72 198.177 28.512 195.361 32.096C192.63 35.68 191.265 40.5013 191.265 46.56C191.265 52.6187 192.63 57.44 195.361 61.024C198.177 64.608 201.974 66.4 206.753 66.4C209.996 66.4 212.854 65.5893 215.329 63.968C217.889 62.2613 219.852 59.9147 221.217 56.928H251.169C249.889 64.096 247.286 70.368 243.361 75.744C239.521 81.12 234.486 85.3013 228.257 88.288C222.113 91.1893 215.116 92.64 207.265 92.64C198.134 92.64 190.198 90.72 183.457 86.88C176.716 82.9547 171.51 77.4933 167.841 70.496C164.257 63.4987 162.465 55.52 162.465 46.56Z" fill="white"/>
</svg>
